<svg width="100" height="27" viewBox="0 0 100 27" fill="none" xmlns="http://www.w3.org/2000/svg">
<path d="M26.3055 0.512L17.1615 18.26V26H9.16947V18.26L0.0254669 0.512H9.16947L13.2375 9.548L17.3055 0.512H26.3055ZM41.2623 26.252C38.8623 26.252 36.6543 25.688 34.6383 24.56C32.6463 23.432 31.0623 21.872 29.8863 19.88C28.7103 17.888 28.1223 15.644 28.1223 13.148C28.1223 10.652 28.7103 8.408 29.8863 6.416C31.0623 4.424 32.6463 2.876 34.6383 1.772C36.6543 0.643999 38.8623 0.079999 41.2623 0.079999C43.6623 0.079999 45.8583 0.643999 47.8503 1.772C49.8423 2.876 51.4143 4.424 52.5663 6.416C53.7423 8.408 54.3303 10.652 54.3303 13.148C54.3303 15.644 53.7423 17.888 52.5663 19.88C51.4143 21.872 49.8303 23.432 47.8143 24.56C45.8223 25.688 43.6383 26.252 41.2623 26.252ZM41.2623 18.8C42.8463 18.8 44.0703 18.296 44.9343 17.288C45.7983 16.256 46.2303 14.876 46.2303 13.148C46.2303 11.396 45.7983 10.016 44.9343 9.008C44.0703 7.976 42.8463 7.46 41.2623 7.46C39.6543 7.46 38.4183 7.976 37.5543 9.008C36.6903 10.016 36.2583 11.396 36.2583 13.148C36.2583 14.876 36.6903 16.256 37.5543 17.288C38.4183 18.296 39.6543 18.8 41.2623 18.8ZM70.7494 26L65.9614 16.856H65.9254V26H57.9334V0.512H69.8134C71.8774 0.512 73.6414 0.883999 75.1054 1.628C76.5694 2.348 77.6614 3.344 78.3814 4.616C79.1254 5.864 79.4974 7.28 79.4974 8.864C79.4974 10.568 79.0174 12.08 78.0574 13.4C77.1214 14.72 75.7654 15.668 73.9894 16.244L79.5334 26H70.7494ZM65.9254 11.528H69.0934C69.8614 11.528 70.4374 11.36 70.8214 11.024C71.2054 10.664 71.3974 10.112 71.3974 9.368C71.3974 8.696 71.1934 8.168 70.7854 7.784C70.4014 7.4 69.8374 7.208 69.0934 7.208H65.9254V11.528ZM90.7626 6.884V10.016H98.6826V16.028H90.7626V19.628H99.7626V26H82.7706V0.512H99.7626V6.884H90.7626Z" fill="url(#paint0_linear)"/>
<defs>
<linearGradient id="paint0_linear" x1="109.5" y1="26" x2="-8.5" y2="-0.500003" gradientUnits="userSpaceOnUse">
<stop stop-color="#0856F4"/>
<stop offset="1" stop-color="#7A00FF"/>
</linearGradient>
</defs>
</svg>
